<svg xmlns="http://www.w3.org/2000/svg" width="64" height="64" viewBox="0 0 64 64">
  <defs>
    <linearGradient id="g" x1="10" y1="10" x2="54" y2="54" gradientUnits="userSpaceOnUse">
      <stop stop-color="#c28b62" />
      <stop offset="1" stop-color="#43281f" />
    </linearGradient>
  </defs>
  <path fill="url(#g)" d="M18 18h28v18a14 14 0 0 1-28 0V18z" />
  <path fill="url(#g)" d="M46 22h4a8 8 0 0 1 0 16h-4v-4h4a4 4 0 0 0 0-8h-4v-4z" />
  <path fill="none" stroke="#f3eee7" stroke-width="3" stroke-linecap="round" d="M26 14c0 2 2 2 2 4s-2 2-2 4" />
  <path fill="none" stroke="#f3eee7" stroke-width="3" stroke-linecap="round" d="M34 14c0 2 2 2 2 4s-2 2-2 4" />
</svg>
